REM DIRINDEX 1\2,1\4,1\3\5,1\3\6
REM DIRNAME cjc035,folder01,folder02,folder03,folder04,folder05
TITLE ""
FILE "Track19.mp3" MP3
  TRACK 01 AUDIO
    TITLE "4:cjc035_0778"
    INDEX 01 00:00:00
  TRACK 02 AUDIO
    TITLE "5:cjc035_0779"
    INDEX 01 00:05:18
  TRACK 03 AUDIO
    TITLE "6:cjc035_0780"
    INDEX 01 00:06:51
  TRACK 04 AUDIO
    TITLE "5:cjc035_0781"
    INDEX 01 00:08:13
  TRACK 05 AUDIO
    TITLE "6:cjc035_0782"
    INDEX 01 00:09:51
  TRACK 06 AUDIO
    TITLE "5:cjc035_0783"
    INDEX 01 00:11:23
  TRACK 07 AUDIO
    TITLE "6:cjc035_0784"
    INDEX 01 00:12:73
  TRACK 08 AUDIO
    TITLE "5:cjc035_0785"
    INDEX 01 00:15:01
  TRACK 09 AUDIO
    TITLE "6:cjc035_0786"
    INDEX 01 00:16:51
  TRACK 10 AUDIO
    TITLE "5:cjc035_0787"
    INDEX 01 00:18:25
  TRACK 11 AUDIO
    TITLE "6:cjc035_0788"
    INDEX 01 00:20:04
  TRACK 12 AUDIO
    TITLE "5:cjc035_0789"
    INDEX 01 00:21:55
  TRACK 13 AUDIO
    TITLE "6:cjc035_0790"
    INDEX 01 00:23:26
  TRACK 14 AUDIO
    TITLE "5:cjc035_0791"
    INDEX 01 00:24:71
  TRACK 15 AUDIO
    TITLE "6:cjc035_0792"
    INDEX 01 00:26:44
  TRACK 16 AUDIO
    TITLE "5:cjc035_0793"
    INDEX 01 00:28:17
  TRACK 17 AUDIO
    TITLE "6:cjc035_0794"
    INDEX 01 00:30:01
  TRACK 18 AUDIO
    TITLE "5:cjc035_0795"
    INDEX 01 00:31:67
  TRACK 19 AUDIO
    TITLE "6:cjc035_0796"
    INDEX 01 00:33:42
  TRACK 20 AUDIO
    TITLE "5:cjc035_0797"
    INDEX 01 00:35:17
  TRACK 21 AUDIO
    TITLE "6:cjc035_0798"
    INDEX 01 00:37:05
  TRACK 22 AUDIO
    TITLE "5:cjc035_0799"
    INDEX 01 00:38:65
  TRACK 23 AUDIO
    TITLE "6:cjc035_0800"
    INDEX 01 00:40:50
  TRACK 24 AUDIO
    TITLE "5:cjc035_0801"
    INDEX 01 00:42:33
  TRACK 25 AUDIO
    TITLE "6:cjc035_0802"
    INDEX 01 00:44:26
  TRACK 26 AUDIO
    TITLE "5:cjc035_0803"
    INDEX 01 00:46:27
  TRACK 27 AUDIO
    TITLE "6:cjc035_0804"
    INDEX 01 00:48:06
  TRACK 28 AUDIO
    TITLE "5:cjc035_0805"
    INDEX 01 00:49:65
  TRACK 29 AUDIO
    TITLE "6:cjc035_0806"
    INDEX 01 00:51:44
  TRACK 30 AUDIO
    TITLE "5:cjc035_0807"
    INDEX 01 00:53:19
  TRACK 31 AUDIO
    TITLE "6:cjc035_0808"
    INDEX 01 00:54:74
  TRACK 32 AUDIO
    TITLE "5:cjc035_0809"
    INDEX 01 00:56:51
  TRACK 33 AUDIO
    TITLE "6:cjc035_0810"
    INDEX 01 00:58:30
  TRACK 34 AUDIO
    TITLE "5:cjc035_0811"
    INDEX 01 01:00:13
  TRACK 35 AUDIO
    TITLE "6:cjc035_0812"
    INDEX 01 01:02:01
  TRACK 36 AUDIO
    TITLE "5:cjc035_0813"
    INDEX 01 01:03:71
  TRACK 37 AUDIO
    TITLE "6:cjc035_0814"
    INDEX 01 01:05:52
  TRACK 38 AUDIO
    TITLE "5:cjc035_0815"
    INDEX 01 01:07:45
  TRACK 39 AUDIO
    TITLE "6:cjc035_0816"
    INDEX 01 01:09:18
  TRACK 40 AUDIO
    TITLE "5:cjc035_0817"
    INDEX 01 01:10:73
  TRACK 41 AUDIO
    TITLE "6:cjc035_0818"
    INDEX 01 01:12:58
  TRACK 42 AUDIO
    TITLE "5:cjc035_0819"
    INDEX 01 01:14:39
  TRACK 43 AUDIO
    TITLE "6:cjc035_0820"
    INDEX 01 01:16:22
  TRACK 44 AUDIO
    TITLE "5:cjc035_0821"
    INDEX 01 01:18:09
  TRACK 45 AUDIO
    TITLE "6:cjc035_0822"
    INDEX 01 01:19:66
  TRACK 46 AUDIO
    TITLE "5:cjc035_0823"
    INDEX 01 01:21:43
  TRACK 47 AUDIO
    TITLE "6:cjc035_0824"
    INDEX 01 01:23:32
  TRACK 48 AUDIO
    TITLE "5:cjc035_0825"
    INDEX 01 01:25:19
  TRACK 49 AUDIO
    TITLE "6:cjc035_0826"
    INDEX 01 01:26:74
  TRACK 50 AUDIO
    TITLE "5:cjc035_0827"
    INDEX 01 01:28:45
  TRACK 51 AUDIO
    TITLE "6:cjc035_0828"
    INDEX 01 01:30:22
  TRACK 52 AUDIO
    TITLE "5:cjc035_0829"
    INDEX 01 01:32:10
  TRACK 53 AUDIO
    TITLE "6:cjc035_0830"
    INDEX 01 01:33:56
  TRACK 54 AUDIO
    TITLE "5:cjc035_0831"
    INDEX 01 01:35:22
  TRACK 55 AUDIO
    TITLE "6:cjc035_0832"
    INDEX 01 01:37:07
  TRACK 56 AUDIO
    TITLE "5:cjc035_0833"
    INDEX 01 01:38:65
  TRACK 57 AUDIO
    TITLE "6:cjc035_0834"
    INDEX 01 01:40:44
  TRACK 58 AUDIO
    TITLE "5:cjc035_0835"
    INDEX 01 01:42:20
  TRACK 59 AUDIO
    TITLE "6:cjc035_0836"
    INDEX 01 01:44:01
  TRACK 60 AUDIO
    TITLE "5:cjc035_0837"
    INDEX 01 01:45:63
  TRACK 61 AUDIO
    TITLE "6:cjc035_0838"
    INDEX 01 01:47:56
  TRACK 62 AUDIO
    TITLE "5:cjc035_0839"
    INDEX 01 01:49:41
  TRACK 63 AUDIO
    TITLE "6:cjc035_0840"
    INDEX 01 01:51:27
  TRACK 64 AUDIO
    TITLE "5:cjc035_0841"
    INDEX 01 01:53:10
  TRACK 65 AUDIO
    TITLE "6:cjc035_0842"
    INDEX 01 01:54:72
  TRACK 66 AUDIO
    TITLE "5:cjc035_0843"
    INDEX 01 01:56:55
  TRACK 67 AUDIO
    TITLE "6:cjc035_0844"
    INDEX 01 01:58:42
  TRACK 68 AUDIO
    TITLE "5:cjc035_0845"
    INDEX 01 02:00:24
  TRACK 69 AUDIO
    TITLE "6:cjc035_0846"
    INDEX 01 02:02:07
  TRACK 70 AUDIO
    TITLE "5:cjc035_0847"
    INDEX 01 02:03:65
  TRACK 71 AUDIO
    TITLE "6:cjc035_0848"
    INDEX 01 02:05:60
  TRACK 72 AUDIO
    TITLE "5:cjc035_0849"
    INDEX 01 02:07:53
  TRACK 73 AUDIO
    TITLE "6:cjc035_0850"
    INDEX 01 02:09:42
  TRACK 74 AUDIO
    TITLE "5:cjc035_0851"
    INDEX 01 02:11:29
  TRACK 75 AUDIO
    TITLE "6:cjc035_0852"
    INDEX 01 02:13:05
  TRACK 76 AUDIO
    TITLE "5:cjc035_0853"
    INDEX 01 02:14:57
  TRACK 77 AUDIO
    TITLE "6:cjc035_0854"
    INDEX 01 02:16:44
  TRACK 78 AUDIO
    TITLE "5:cjc035_0855"
    INDEX 01 02:18:31
  TRACK 79 AUDIO
    TITLE "6:cjc035_0856"
    INDEX 01 02:20:24
  TRACK 80 AUDIO
    TITLE "5:cjc035_0857"
    INDEX 01 02:22:11
  TRACK 81 AUDIO
    TITLE "6:cjc035_0858"
    INDEX 01 02:24:02
  TRACK 82 AUDIO
    TITLE "5:cjc035_0859"
    INDEX 01 02:25:57
  TRACK 83 AUDIO
    TITLE "6:cjc035_0860"
    INDEX 01 02:27:54
  TRACK 84 AUDIO
    TITLE "5:cjc035_0861"
    INDEX 01 02:29:47
  TRACK 85 AUDIO
    TITLE "6:cjc035_0862"
    INDEX 01 02:31:32
  TRACK 86 AUDIO
    TITLE "5:cjc035_0863"
    INDEX 01 02:33:25
  TRACK 87 AUDIO
    TITLE "6:cjc035_0864"
    INDEX 01 02:35:08
  TRACK 88 AUDIO
    TITLE "5:cjc035_0865"
    INDEX 01 02:36:49
  TRACK 89 AUDIO
    TITLE "6:cjc035_0866"
    INDEX 01 02:38:40
  TRACK 90 AUDIO
    TITLE "5:cjc035_0867"
    INDEX 01 02:40:29
  TRACK 91 AUDIO
    TITLE "6:cjc035_0868"
    INDEX 01 02:42:18
  TRACK 92 AUDIO
    TITLE "5:cjc035_0869"
    INDEX 01 02:44:03
  TRACK 93 AUDIO
    TITLE "6:cjc035_0870"
    INDEX 01 02:45:71
  TRACK 94 AUDIO
    TITLE "0:"
    INDEX 01 02:48:01
